<svg xmlns="http://www.w3.org/2000/svg" viewBox="0 0 64 64"><g data-name="Layer 3"><path d="M60,9.12H4a1,1,0,0,0-1,1V53.88a1,1,0,0,0,1,1H60a1,1,0,0,0,1-1V10.12A1,1,0,0,0,60,9.12ZM59,52.88H5V11.12H59Z"/><path d="M19.1 31.57a5.87 5.87 0 1 0-5.87-5.87A5.88 5.88 0 0 0 19.1 31.57zm0-9.74a3.87 3.87 0 1 1-3.87 3.87A3.88 3.88 0 0 1 19.1 21.82zM10 49.3a1 1 0 0 0 .66-.25L27 34.71 32 39.36h0l5.74 5.41a1 1 0 0 0 1.37-1.46l-5-4.74 9-9.85L54.37 39.2a1 1 0 0 0 1.36-1.46l-12-11.16A.94.94 0 0 0 43 26.3a1 1 0 0 0-.7.32L32.59 37.2l-4.86-4.58a1 1 0 0 0-1.35 0l-17 14.95A1 1 0 0 0 10 49.3z"/></g></svg>